<?xml version="1.0" encoding="UTF-8"?>
<!DOCTYPE svg PUBLIC "-//W3C//DTD SVG 1.1//EN" "http://www.w3.org/Graphics/SVG/1.1/DTD/svg11.dtd">
<!-- Creator: CorelDRAW X8 -->
<svg xmlns="http://www.w3.org/2000/svg" xml:space="preserve" width="107.299mm" height="64.109mm" version="1.1" style="shape-rendering:geometricPrecision; text-rendering:geometricPrecision; image-rendering:optimizeQuality; fill-rule:evenodd; clip-rule:evenodd"
viewBox="0 0 10730 6411"
 xmlns:xlink="http://www.w3.org/1999/xlink">
 <defs>
  <style type="text/css">
   <![CDATA[
    .fil0 {fill:white}
   ]]>
  </style>
 </defs>
 <g id="Capa_x0020_1">
  <metadata id="CorelCorpID_0Corel-Layer"/>
  <path class="fil0" d="M10082 4538l-315 0 -9 47 133 0 -47 371 56 0 49 -371 122 0 11 -47zm219 274l-67 -274 -38 0 -144 418 47 0 116 -324 67 324 171 -324 0 324 56 0 0 -418 -56 0 -152 274zm-8666 1228l-369 -695 -316 0 582 1066 180 0 590 -1066 -324 0 -343 695zm1390 -144l0 515 286 0 0 -1066 -286 0 0 551zm3090 515l789 0 0 -180 -493 0 0 -286 466 0 0 -182 -466 0 0 -236 493 0 0 -182 -789 0 0 1066zm4012 -2388c0,-399 -2266,-723 -5063,-723 -2798,0 -5064,324 -5064,723 0,399 2268,723 5064,723 2795,0 5063,-322 5063,-723zm-6409 11c0,-133 519,-239 1161,-239 642,0 1159,108 1159,236 0,129 -517,239 -1159,239 -642,0 -1159,-108 -1159,-236l-2 0zm4699 1306c-414,0 -751,238 -751,532 0,294 337,532 751,532 414,0 751,-236 751,-532 0,-294 -337,-532 -751,-532zm0 871c-247,0 -446,-150 -446,-339 0,-186 199,-336 446,-336 247,0 446,150 446,336 0,187 -199,339 -446,339zm-3808 -866l-451 0 0 1066 451 0c0,0 716,0 716,-528 0,-528 -716,-536 -716,-536l0 -2zm-151 884l0 -702c0,0 563,-37 563,354 0,388 -560,348 -560,348l-3 0zm-339 -5077c0,-10 1,-21 1,-32 0,-180 -29,-359 -86,-530l36 0 961 2701 2360 -2703 1273 0c0,0 991,-26 991,611 0,638 -824,884 -1352,884l-227 0 296 -1274 -1036 0 -438 1854 1412 0c1351,0 2420,-743 2420,-1511 -2,-1137 -1742,-1152 -1742,-1152l-2189 0 -1388 1751 -541 -1751 -3947 0 -144 590 1319 0c187,4 944,52 944,609 0,638 -824,884 -1349,884l-228 0 294 -1274 -1036 0 -438 1854 1412 0c1352,0 2420,-743 2420,-1511l2 0z"/>
 </g>
</svg>
